# Blender 4.5.3 LTS
# www.blender.org
mtllib mcube.mtl
o Cube
v -0.500000 0.500000 0.500000
v -0.500000 0.500000 -0.500000
v -0.500000 -0.500000 0.500000
v -0.500000 -0.500000 -0.500000
v 0.500000 0.500000 0.500000
v 0.500000 0.500000 -0.500000
v 0.500000 -0.500000 0.500000
v 0.500000 -0.500000 -0.500000
vn -1.0000 -0.0000 -0.0000
vn -0.0000 -1.0000 -0.0000
vn 1.0000 -0.0000 -0.0000
vn -0.0000 1.0000 -0.0000
vn -0.0000 -0.0000 1.0000
vn -0.0000 -0.0000 -1.0000
vt -0.012065 0.005880
vt 1.000557 0.996951
vt 1.000557 0.005880
vt -0.005004 0.005880
vt 0.993496 0.996951
vt 0.993496 0.005880
vt -0.004530 0.005880
vt 0.993022 0.996951
vt 0.993022 0.005880
vt -0.011766 0.005880
vt 1.000258 0.996951
vt 1.000258 0.005880
vt 0.985852 0.005880
vt 0.002639 0.996951
vt 0.002639 0.005880
vt -0.004776 0.005880
vt 0.993267 0.996951
vt 0.993267 0.005880
vt -0.012065 0.996951
vt -0.005004 0.996951
vt -0.004530 0.996951
vt -0.011766 0.996951
vt 0.985852 0.996951
vt -0.004776 0.996951
s 0
usemtl Material.001
f 2/1/1 3/2/1 1/3/1
f 4/4/2 7/5/2 3/6/2
f 8/7/3 5/8/3 7/9/3
f 6/10/4 1/11/4 5/12/4
f 7/13/5 1/14/5 3/15/5
f 4/16/6 6/17/6 8/18/6
f 2/1/1 4/19/1 3/2/1
f 4/4/2 8/20/2 7/5/2
f 8/7/3 6/21/3 5/8/3
f 6/10/4 2/22/4 1/11/4
f 7/13/5 5/23/5 1/14/5
f 4/16/6 2/24/6 6/17/6
